<svg viewBox="0 0 500 500"  xmlns="http://www.w3.org/2000/svg"><path d="M25.21-1.23L25.21 0L16.87 0L16.87-1.23Q16.87-1.56 16.98-1.77Q17.09-1.98 17.64-2.34L17.64-2.34Q18.23-2.77 18.41-3.05Q18.58-3.33 18.58-4.10L18.58-4.10L18.58-11.72L8.08-11.72L8.08-4.10Q8.08-3.33 8.25-3.05Q8.43-2.77 9.02-2.34L9.02-2.34Q9.60-1.98 9.72-1.77Q9.83-1.56 9.83-1.23L9.83-1.23L9.83 0L1.44 0L1.44-1.23Q1.44-1.56 1.55-1.77Q1.66-1.98 2.20-2.34L2.20-2.34Q2.84-2.77 3.01-3.05Q3.18-3.33 3.18-4.10L3.18-4.10L3.18-21.45Q3.18-22.22 3.01-22.51Q2.84-22.80 2.20-23.24L2.20-23.24Q1.66-23.62 1.55-23.81Q1.44-23.99 1.44-24.32L1.44-24.32L1.44-25.55L9.83-25.55L9.83-24.32Q9.83-23.99 9.70-23.81Q9.57-23.64 9.02-23.24L9.02-23.24Q8.39-22.81 8.24-22.52Q8.08-22.22 8.08-21.45L8.08-21.45L8.08-14.56L18.58-14.56L18.58-21.45Q18.58-22.22 18.41-22.52Q18.23-22.81 17.64-23.24L17.64-23.24Q17.09-23.64 16.98-23.81Q16.87-23.99 16.87-24.32L16.87-24.32L16.87-25.55L25.21-25.55L25.21-24.32Q25.21-23.99 25.10-23.81Q24.99-23.64 24.44-23.24L24.44-23.24Q23.82-22.81 23.65-22.52Q23.48-22.22 23.48-21.45L23.48-21.45L23.48-4.10Q23.48-3.33 23.65-3.05Q23.82-2.77 24.44-2.34L24.44-2.34Q24.99-1.98 25.10-1.77Q25.21-1.56 25.21-1.23L25.21-1.23ZM43.27-9.66L43.27-9.66Q43.27-9.07 43.02-8.86Q42.76-8.65 42.13-8.65L42.13-8.65L31.51-8.65Q31.62-6.19 32.76-4.33Q33.91-2.48 36.35-2.48L36.35-2.48Q37.97-2.48 39.38-3.34Q40.78-4.20 41.70-5.35L41.70-5.35L43.10-3.88Q42.47-2.70 40.59-1.18Q38.71 0.34 35.82 0.34L35.82 0.34Q31.56 0.34 29.39-2.35Q27.21-5.04 27.21-8.29L27.21-8.29Q27.21-11.69 29.31-14.59Q31.41-17.50 35.65-17.50L35.65-17.50Q39.49-17.50 41.38-14.99Q43.27-12.48 43.27-9.66ZM31.75-10.99L38.62-10.99Q38.62-12.68 37.94-13.83Q37.26-14.99 35.43-14.99L35.43-14.99Q33.89-14.99 32.94-13.86Q31.99-12.73 31.75-10.99L31.75-10.99ZM52.89-1.08L52.89 0L45.13 0L45.13-1.08Q45.13-1.37 45.27-1.50Q45.41-1.62 45.90-2.00L45.90-2.00Q46.54-2.43 46.66-2.71Q46.77-2.99 46.77-3.91L46.77-3.91L46.77-21.21Q46.77-22.13 46.66-22.42Q46.54-22.71 45.90-23.14L45.90-23.14Q45.41-23.45 45.27-23.58Q45.13-23.70 45.13-24.05L45.13-24.05L45.13-25.12L51.22-25.55L51.22-3.91Q51.22-2.99 51.35-2.71Q51.49-2.43 52.12-2.00L52.12-2.00Q52.62-1.62 52.76-1.50Q52.89-1.37 52.89-1.08L52.89-1.08ZM62.91-1.08L62.91 0L55.15 0L55.15-1.08Q55.15-1.37 55.29-1.50Q55.42-1.62 55.92-2.00L55.92-2.00Q56.55-2.43 56.67-2.71Q56.79-2.99 56.79-3.91L56.79-3.91L56.79-21.21Q56.79-22.13 56.67-22.42Q56.55-22.71 55.92-23.14L55.92-23.14Q55.42-23.45 55.29-23.58Q55.15-23.70 55.15-24.05L55.15-24.05L55.15-25.12L61.23-25.55L61.23-3.91Q61.23-2.99 61.37-2.71Q61.51-2.43 62.14-2.00L62.14-2.00Q62.63-1.62 62.77-1.50Q62.91-1.37 62.91-1.08L62.91-1.08ZM82.27-8.54L82.27-8.54Q82.27-4.70 79.84-2.18Q77.42 0.34 73.62 0.34L73.62 0.34Q69.78 0.34 67.34-2.15Q64.91-4.65 64.91-8.54L64.91-8.54Q64.91-12.44 67.34-14.97Q69.78-17.50 73.62-17.50L73.62-17.50Q77.42-17.50 79.84-14.97Q82.27-12.44 82.27-8.54ZM77.62-8.54L77.62-8.54Q77.62-11.48 76.59-13.14Q75.55-14.80 73.62-14.80L73.62-14.80Q71.64-14.80 70.61-13.14Q69.57-11.48 69.57-8.54L69.57-8.54Q69.57-5.55 70.61-3.93Q71.64-2.31 73.62-2.31L73.62-2.31Q75.55-2.31 76.59-3.93Q77.62-5.55 77.62-8.54Z"/></svg>