<svg viewBox="0 0 500 500"  xmlns="http://www.w3.org/2000/svg"><path d="M16.91-24.78L24.68-24.78L24.68 0L16.91 0L16.91-9.66L9.52-9.66L9.52 0L1.75 0L1.75-24.78L9.52-24.78L9.52-15.86L16.91-15.86L16.91-24.78ZM47.29-10.05Q47.29-9.24 47.18-8.51L47.18-8.51L34.69-8.51Q34.86-5.95 36.82-5.95L36.82-5.95Q38.08-5.95 38.64-7.11L38.64-7.11L46.87-7.11Q46.45-5.01 45.10-3.34Q43.75-1.68 41.70-0.72Q39.66 0.25 37.21 0.25L37.21 0.25Q34.27 0.25 31.97-0.98Q29.68-2.21 28.40-4.50Q27.13-6.79 27.13-9.87L27.13-9.87Q27.13-12.95 28.40-15.24Q29.68-17.54 31.97-18.76Q34.27-19.99 37.21-19.99L37.21-19.99Q40.15-19.99 42.44-18.78Q44.73-17.57 46.01-15.33Q47.29-13.09 47.29-10.05L47.29-10.05ZM34.79-11.90L39.41-11.90Q39.41-12.88 38.78-13.39Q38.15-13.90 37.21-13.90L37.21-13.90Q35.14-13.90 34.79-11.90L34.79-11.90ZM49.74-25.90L57.51-25.90L57.51 0L49.74 0L49.74-25.90ZM61.01-25.90L68.78-25.90L68.78 0L61.01 0L61.01-25.90ZM81.66 0.25Q78.68 0.25 76.30-0.98Q73.92-2.21 72.57-4.50Q71.23-6.79 71.23-9.87L71.23-9.87Q71.23-12.95 72.57-15.24Q73.92-17.54 76.30-18.76Q78.68-19.99 81.66-19.99L81.66-19.99Q84.63-19.99 87.01-18.76Q89.39-17.54 90.74-15.24Q92.09-12.95 92.09-9.87L92.09-9.87Q92.09-6.79 90.74-4.50Q89.39-2.21 87.01-0.98Q84.63 0.25 81.66 0.25L81.66 0.25ZM81.66-6.48Q82.74-6.48 83.48-7.33Q84.21-8.19 84.21-9.87L84.21-9.87Q84.21-11.55 83.48-12.41Q82.74-13.27 81.66-13.27L81.66-13.27Q80.57-13.27 79.84-12.41Q79.10-11.55 79.10-9.87L79.10-9.87Q79.10-8.19 79.82-7.33Q80.54-6.48 81.66-6.48L81.66-6.48Z"/></svg>