<svg viewBox="0 0 500 500"  xmlns="http://www.w3.org/2000/svg"><path d="M8.54 0L2.52 0L2.52-22.75L8.54-22.75L8.54-14.28L15.33-14.28L15.33-22.75L21.35-22.75L21.35 0L15.33 0L15.33-9.03L8.54-9.03L8.54 0ZM34.02 0.42L34.02 0.42Q32.09 0.42 30.45-0.19Q28.80-0.81 27.60-1.98Q26.39-3.15 25.69-4.87Q24.99-6.58 24.99-8.75L24.99-8.75Q24.99-10.89 25.71-12.58Q26.43-14.28 27.60-15.47Q28.77-16.66 30.28-17.29Q31.78-17.92 33.39-17.92L33.39-17.92Q35.31-17.92 36.75-17.26Q38.19-16.59 39.13-15.44Q40.08-14.28 40.55-12.74Q41.02-11.20 41.02-9.45L41.02-9.45Q41.02-8.65 40.93-7.95Q40.84-7.25 40.78-6.93L40.78-6.93L30.80-6.93Q31.22-5.36 32.30-4.74Q33.39-4.13 34.86-4.13L34.86-4.13Q35.77-4.13 36.63-4.39Q37.48-4.66 38.43-5.18L38.43-5.18L40.39-1.61Q38.95-0.60 37.22-0.09Q35.49 0.42 34.02 0.42ZM30.73-10.85L30.73-10.85L35.91-10.85Q35.91-11.87 35.40-12.62Q34.90-13.37 33.53-13.37L33.53-13.37Q32.52-13.37 31.76-12.78Q31.01-12.18 30.73-10.85ZM49.70 0.42L49.70 0.42Q48.16 0.42 47.13-0.05Q46.09-0.53 45.47-1.40Q44.84-2.28 44.57-3.48Q44.31-4.69 44.31-6.16L44.31-6.16L44.31-24.36L50.33-24.36L50.33-5.95Q50.33-5.04 50.66-4.73Q51.00-4.41 51.31-4.41L51.31-4.41Q51.48-4.41 51.61-4.41Q51.73-4.41 51.94-4.48L51.94-4.48L52.64-0.07Q52.15 0.14 51.43 0.28Q50.72 0.42 49.70 0.42ZM60.13 0.42L60.13 0.42Q58.59 0.42 57.56-0.05Q56.52-0.53 55.90-1.40Q55.27-2.28 55.00-3.48Q54.74-4.69 54.74-6.16L54.74-6.16L54.74-24.36L60.76-24.36L60.76-5.95Q60.76-5.04 61.09-4.73Q61.43-4.41 61.74-4.41L61.74-4.41Q61.91-4.41 62.04-4.41Q62.16-4.41 62.37-4.48L62.37-4.48L63.07-0.07Q62.58 0.14 61.86 0.28Q61.15 0.42 60.13 0.42ZM72.94 0.42L72.94 0.42Q71.26 0.42 69.69-0.19Q68.11-0.81 66.90-1.98Q65.70-3.15 64.98-4.87Q64.26-6.58 64.26-8.75L64.26-8.75Q64.26-10.92 64.98-12.64Q65.70-14.35 66.90-15.52Q68.11-16.70 69.69-17.31Q71.26-17.92 72.94-17.92L72.94-17.92Q74.62-17.92 76.18-17.31Q77.73-16.70 78.94-15.52Q80.15-14.35 80.89-12.64Q81.62-10.92 81.62-8.75L81.62-8.75Q81.62-6.58 80.89-4.87Q80.15-3.15 78.94-1.98Q77.73-0.81 76.18-0.19Q74.62 0.42 72.94 0.42ZM72.94-4.41L72.94-4.41Q74.31-4.41 74.88-5.58Q75.46-6.76 75.46-8.75L75.46-8.75Q75.46-10.75 74.88-11.92Q74.31-13.09 72.94-13.09L72.94-13.09Q71.58-13.09 71.00-11.92Q70.42-10.75 70.42-8.75L70.42-8.75Q70.42-6.76 71.00-5.58Q71.58-4.41 72.94-4.41Z"/></svg>